<mxfile host="65bd71144e">
    <diagram id="YzUoQij953maOpbc3Z_9" name="Page-1">
        <mxGraphModel dx="2153" dy="2266" grid="1" gridSize="10" guides="1" tooltips="1" connect="1" arrows="1" fold="1" page="1" pageScale="1" pageWidth="850" pageHeight="1100" math="0" shadow="0">
            <root>
                <mxCell id="0"/>
                <mxCell id="1" parent="0"/>
                <mxCell id="7" value="creates via&amp;nbsp;&lt;b style=&quot;font-size: 12px;&quot;&gt;CategoryMapInputHandler&lt;/b&gt;&lt;br&gt;findSource()" style="edgeStyle=none;html=1;" parent="1" target="30" edge="1">
                    <mxGeometry relative="1" as="geometry">
                        <mxPoint x="425" y="310" as="sourcePoint"/>
                        <mxPoint x="425" y="380" as="targetPoint"/>
                        <mxPoint as="offset"/>
                    </mxGeometry>
                </mxCell>
                <mxCell id="40" value="uses" style="edgeStyle=none;html=1;fontSize=10;" parent="1" source="3" target="42" edge="1">
                    <mxGeometry relative="1" as="geometry"/>
                </mxCell>
                <mxCell id="3" value="Solver" style="html=1;" parent="1" vertex="1">
                    <mxGeometry x="370" y="260" width="110" height="50" as="geometry"/>
                </mxCell>
                <mxCell id="13" style="edgeStyle=none;html=1;dashed=1;endArrow=none;endFill=0;" parent="1" source="11" target="3" edge="1">
                    <mxGeometry relative="1" as="geometry"/>
                </mxCell>
                <mxCell id="11" value="&lt;div style=&quot;text-align: left;&quot;&gt;&lt;span style=&quot;font-size: 11px; background-color: initial;&quot;&gt;- creates Maps&lt;/span&gt;&lt;/div&gt;&lt;span style=&quot;font-size: 11px;&quot;&gt;&lt;div style=&quot;text-align: left;&quot;&gt;&lt;span style=&quot;background-color: initial;&quot;&gt;- searches for every seed the lowest location&lt;/span&gt;&lt;/div&gt;&lt;/span&gt;" style="shape=note2;boundedLbl=1;whiteSpace=wrap;html=1;size=25;verticalAlign=top;align=center;" parent="1" vertex="1">
                    <mxGeometry x="570" y="240" width="220" height="90" as="geometry"/>
                </mxCell>
                <mxCell id="15" style="edgeStyle=none;html=1;dashed=1;endArrow=none;endFill=0;" parent="1" source="14" target="30" edge="1">
                    <mxGeometry relative="1" as="geometry">
                        <mxPoint x="480" y="405" as="targetPoint"/>
                    </mxGeometry>
                </mxCell>
                <mxCell id="14" value="&lt;div style=&quot;text-align: left;&quot;&gt;&lt;span style=&quot;font-size: 11px; background-color: initial;&quot;&gt;- holds mapping for eg. seed to soil ...&lt;/span&gt;&lt;/div&gt;&lt;span style=&quot;font-size: 11px;&quot;&gt;&lt;div style=&quot;text-align: left;&quot;&gt;&lt;span style=&quot;background-color: initial;&quot;&gt;- Data input at constructor via Implementation agnostic CategoryMapInput and CategoryMapInputRow&lt;/span&gt;&lt;/div&gt;&lt;div style=&quot;text-align: left;&quot;&gt;&lt;span style=&quot;background-color: initial;&quot;&gt;--&amp;gt; Data structure for performance is implementation defined&lt;/span&gt;&lt;/div&gt;&lt;div style=&quot;text-align: left;&quot;&gt;&lt;br&gt;&lt;/div&gt;&lt;/span&gt;" style="shape=note2;boundedLbl=1;whiteSpace=wrap;html=1;size=25;verticalAlign=top;align=center;" parent="1" vertex="1">
                    <mxGeometry x="590" y="380" width="220" height="130" as="geometry"/>
                </mxCell>
                <mxCell id="23" value="&lt;div style=&quot;&quot;&gt;&lt;span style=&quot;font-size: 11px; background-color: initial;&quot;&gt;- Text File -&amp;gt; needs a parser -&amp;gt; might be complex&lt;/span&gt;&lt;/div&gt;&lt;div style=&quot;&quot;&gt;&lt;span style=&quot;font-size: 11px;&quot;&gt;&lt;br&gt;&lt;/span&gt;&lt;/div&gt;&lt;span style=&quot;font-size: 11px;&quot;&gt;- manually inserted const tables -&amp;gt; Unflexible, big code base, not complex&lt;/span&gt;&lt;br&gt;&lt;br&gt;&lt;div style=&quot;&quot;&gt;&lt;span style=&quot;font-size: 11px; background-color: initial;&quot;&gt;- Priority: Low&lt;/span&gt;&lt;/div&gt;" style="shape=note2;boundedLbl=1;whiteSpace=wrap;html=1;size=25;verticalAlign=top;align=left;" parent="1" vertex="1">
                    <mxGeometry x="670" y="-505" width="220" height="140" as="geometry"/>
                </mxCell>
                <mxCell id="24" style="edgeStyle=none;html=1;dashed=1;endArrow=none;endFill=0;" parent="1" source="23" target="35" edge="1">
                    <mxGeometry relative="1" as="geometry">
                        <mxPoint x="580" y="295" as="sourcePoint"/>
                        <mxPoint x="370" y="165" as="targetPoint"/>
                    </mxGeometry>
                </mxCell>
                <mxCell id="30" value="&lt;p style=&quot;margin:0px;margin-top:4px;text-align:center;&quot;&gt;&lt;i&gt;&amp;lt;&amp;lt;Interface&amp;gt;&amp;gt;&lt;/i&gt;&lt;br&gt;&lt;b&gt;CategoryMap&lt;/b&gt;&lt;/p&gt;&lt;p style=&quot;margin:0px;margin-top:4px;text-align:center;&quot;&gt;&lt;b&gt;&lt;br&gt;&lt;/b&gt;&lt;/p&gt;&lt;div style=&quot;background-color: rgb(31, 31, 31); font-family: Consolas, &amp;quot;Courier New&amp;quot;, monospace; line-height: 19px;&quot;&gt;&lt;font style=&quot;font-size: 10px;&quot;&gt;&lt;span style=&quot;color: rgb(220, 220, 170);&quot;&gt;+ findSource(destination): &lt;/span&gt;&lt;font style=&quot;&quot; color=&quot;#569cd6&quot;&gt;number&lt;/font&gt;&lt;/font&gt;&lt;/div&gt;" style="verticalAlign=top;align=left;overflow=fill;fontSize=12;fontFamily=Helvetica;html=1;" parent="1" vertex="1">
                    <mxGeometry x="320" y="380" width="210" height="140" as="geometry"/>
                </mxCell>
                <mxCell id="35" value="Data" style="whiteSpace=wrap;html=1;fontSize=10;" parent="1" vertex="1">
                    <mxGeometry x="280" y="-510" width="320" height="150" as="geometry"/>
                </mxCell>
                <mxCell id="36" value="uses" style="edgeStyle=none;html=1;fontSize=10;" parent="1" source="37" target="38" edge="1">
                    <mxGeometry relative="1" as="geometry"/>
                </mxCell>
                <mxCell id="45" value="defines" style="edgeStyle=none;html=1;fontSize=10;" parent="1" source="37" target="44" edge="1">
                    <mxGeometry relative="1" as="geometry"/>
                </mxCell>
                <mxCell id="64" value="defines" style="edgeStyle=none;html=1;fontSize=10;endArrow=blockThin;endFill=1;" parent="1" source="37" target="63" edge="1">
                    <mxGeometry relative="1" as="geometry"/>
                </mxCell>
                <mxCell id="37" value="&lt;p style=&quot;margin:0px;margin-top:4px;text-align:center;&quot;&gt;&lt;i&gt;&amp;lt;&amp;lt;interface&amp;gt;&amp;gt;&lt;/i&gt;&lt;br&gt;&lt;b&gt;CategoryMapInputHandler&lt;/b&gt;&lt;/p&gt;&lt;hr size=&quot;1&quot;&gt;&lt;div style=&quot;background-color: rgb(31, 31, 31); font-family: Consolas, &amp;quot;Courier New&amp;quot;, monospace; line-height: 19px;&quot;&gt;&lt;font style=&quot;font-size: 10px;&quot;&gt;&lt;span style=&quot;color: rgb(220, 220, 170);&quot;&gt;+ getRowAtPtr(): CategoryMapInputRow&lt;/span&gt;&lt;/font&gt;&lt;/div&gt;&lt;div style=&quot;background-color: rgb(31, 31, 31); font-family: Consolas, &amp;quot;Courier New&amp;quot;, monospace; line-height: 19px;&quot;&gt;&lt;font style=&quot;font-size: 10px;&quot;&gt;&lt;span style=&quot;color: rgb(220, 220, 170);&quot;&gt;+ movePtr(PtrMovement) : PtrMovementReturn&lt;/span&gt;&lt;/font&gt;&lt;/div&gt;&lt;div style=&quot;background-color: rgb(31, 31, 31); font-family: Consolas, &amp;quot;Courier New&amp;quot;, monospace; line-height: 19px;&quot;&gt;&lt;font style=&quot;font-size: 10px;&quot;&gt;&lt;span style=&quot;color: rgb(220, 220, 170);&quot;&gt;+ getSizeRows() : int&lt;/span&gt;&lt;/font&gt;&lt;/div&gt;" style="verticalAlign=top;align=left;overflow=fill;fontSize=12;fontFamily=Helvetica;html=1;" parent="1" vertex="1">
                    <mxGeometry x="305" y="-200" width="240" height="160" as="geometry"/>
                </mxCell>
                <mxCell id="38" value="&lt;p style=&quot;margin:0px;margin-top:4px;text-align:center;&quot;&gt;&lt;i&gt;&amp;lt;&amp;lt;struct&amp;gt;&amp;gt;&lt;/i&gt;&lt;br&gt;&lt;b&gt;InputRow&lt;/b&gt;&lt;/p&gt;&lt;hr size=&quot;1&quot;&gt;&lt;div style=&quot;background-color: rgb(31, 31, 31); font-family: Consolas, &amp;quot;Courier New&amp;quot;, monospace; line-height: 19px;&quot;&gt;&lt;font style=&quot;font-size: 10px;&quot;&gt;&lt;span style=&quot;color: rgb(220, 220, 170);&quot;&gt;+ destination: int&lt;/span&gt;&lt;/font&gt;&lt;/div&gt;&lt;div style=&quot;background-color: rgb(31, 31, 31); font-family: Consolas, &amp;quot;Courier New&amp;quot;, monospace; line-height: 19px;&quot;&gt;&lt;font style=&quot;font-size: 10px;&quot;&gt;&lt;span style=&quot;color: rgb(220, 220, 170);&quot;&gt;+ source: int&lt;/span&gt;&lt;/font&gt;&lt;/div&gt;&lt;div style=&quot;background-color: rgb(31, 31, 31); font-family: Consolas, &amp;quot;Courier New&amp;quot;, monospace; line-height: 19px;&quot;&gt;&lt;font style=&quot;font-size: 10px;&quot;&gt;&lt;span style=&quot;color: rgb(220, 220, 170);&quot;&gt;+ length: int&lt;/span&gt;&lt;/font&gt;&lt;/div&gt;" style="verticalAlign=top;align=left;overflow=fill;fontSize=12;fontFamily=Helvetica;html=1;" parent="1" vertex="1">
                    <mxGeometry x="10" y="-190" width="210" height="110" as="geometry"/>
                </mxCell>
                <mxCell id="46" value="uses" style="edgeStyle=none;html=1;fontSize=10;" parent="1" source="42" target="37" edge="1">
                    <mxGeometry relative="1" as="geometry"/>
                </mxCell>
                <mxCell id="49" value="defines" style="edgeStyle=none;html=1;fontSize=10;" parent="1" source="42" target="47" edge="1">
                    <mxGeometry relative="1" as="geometry"/>
                </mxCell>
                <mxCell id="62" value="defines" style="edgeStyle=none;html=1;fontSize=10;endArrow=openThin;endFill=0;" parent="1" source="42" target="61" edge="1">
                    <mxGeometry relative="1" as="geometry"/>
                </mxCell>
                <mxCell id="42" value="&lt;p style=&quot;margin:0px;margin-top:4px;text-align:center;&quot;&gt;&lt;i&gt;&amp;lt;&amp;lt;class&amp;gt;&amp;gt;&lt;/i&gt;&lt;br&gt;&lt;b&gt;CategoryMapInputFactory&lt;/b&gt;&lt;/p&gt;&lt;hr size=&quot;1&quot;&gt;&lt;div style=&quot;background-color: rgb(31, 31, 31); font-family: Consolas, &amp;quot;Courier New&amp;quot;, monospace; line-height: 19px;&quot;&gt;&lt;font style=&quot;font-size: 10px;&quot;&gt;&lt;span style=&quot;color: rgb(220, 220, 170);&quot;&gt;+&amp;nbsp; createInput(MapType, ParseType) :&amp;nbsp;&lt;/span&gt;&lt;/font&gt;&lt;/div&gt;&lt;div style=&quot;background-color: rgb(31, 31, 31); font-family: Consolas, &amp;quot;Courier New&amp;quot;, monospace; line-height: 19px;&quot;&gt;&lt;font style=&quot;font-size: 10px;&quot;&gt;&lt;span style=&quot;color: rgb(220, 220, 170);&quot;&gt;&lt;span style=&quot;white-space: pre;&quot;&gt;&#9;&lt;/span&gt;&lt;span style=&quot;white-space: pre;&quot;&gt;&#9;&lt;/span&gt;&lt;span style=&quot;white-space: pre;&quot;&gt;&#9;&lt;/span&gt;CategoryMapInputHandler&lt;/span&gt;&lt;/font&gt;&lt;/div&gt;" style="verticalAlign=top;align=left;overflow=fill;fontSize=12;fontFamily=Helvetica;html=1;" parent="1" vertex="1">
                    <mxGeometry x="275" y="50" width="300" height="100" as="geometry"/>
                </mxCell>
                <mxCell id="43" value="&lt;div style=&quot;text-align: left;&quot;&gt;&lt;br&gt;&lt;/div&gt;" style="text;html=1;align=center;verticalAlign=middle;resizable=0;points=[];autosize=1;strokeColor=none;fillColor=none;fontSize=10;" parent="1" vertex="1">
                    <mxGeometry x="70" y="-390" width="20" height="30" as="geometry"/>
                </mxCell>
                <mxCell id="44" value="&lt;p style=&quot;margin:0px;margin-top:4px;text-align:center;&quot;&gt;&lt;i&gt;&amp;lt;&amp;lt;enum&amp;gt;&amp;gt;&lt;/i&gt;&lt;br&gt;&lt;b&gt;PtrMovementReturn&lt;/b&gt;&lt;/p&gt;&lt;hr size=&quot;1&quot;&gt;&lt;div style=&quot;background-color: rgb(31, 31, 31); font-family: Consolas, &amp;quot;Courier New&amp;quot;, monospace; line-height: 19px;&quot;&gt;&lt;font style=&quot;font-size: 10px;&quot;&gt;&lt;span style=&quot;color: rgb(220, 220, 170);&quot;&gt;&amp;nbsp;- Succesfull : 0&lt;/span&gt;&lt;/font&gt;&lt;/div&gt;&lt;div style=&quot;background-color: rgb(31, 31, 31); font-family: Consolas, &amp;quot;Courier New&amp;quot;, monospace; line-height: 19px;&quot;&gt;&lt;font style=&quot;font-size: 10px;&quot;&gt;&lt;span style=&quot;color: rgb(220, 220, 170);&quot;&gt;&amp;nbsp;- Failed : 1&lt;/span&gt;&lt;/font&gt;&lt;/div&gt;" style="verticalAlign=top;align=left;overflow=fill;fontSize=12;fontFamily=Helvetica;html=1;" parent="1" vertex="1">
                    <mxGeometry x="660" y="-290" width="240" height="90" as="geometry"/>
                </mxCell>
                <mxCell id="47" value="&lt;p style=&quot;margin:0px;margin-top:4px;text-align:center;&quot;&gt;&lt;i&gt;&amp;lt;&amp;lt;enum&amp;gt;&amp;gt;&lt;/i&gt;&lt;br&gt;&lt;b&gt;ParseType&lt;/b&gt;&lt;/p&gt;&lt;hr size=&quot;1&quot;&gt;&lt;div style=&quot;background-color: rgb(31, 31, 31); font-family: Consolas, &amp;quot;Courier New&amp;quot;, monospace; line-height: 19px;&quot;&gt;&lt;font style=&quot;font-size: 10px;&quot;&gt;&lt;span style=&quot;color: rgb(220, 220, 170);&quot;&gt;&amp;nbsp;- constArray : 0&lt;/span&gt;&lt;/font&gt;&lt;/div&gt;&lt;div style=&quot;background-color: rgb(31, 31, 31); font-family: Consolas, &amp;quot;Courier New&amp;quot;, monospace; line-height: 19px;&quot;&gt;&lt;font style=&quot;font-size: 10px;&quot;&gt;&lt;span style=&quot;color: rgb(220, 220, 170);&quot;&gt;&amp;nbsp;- fileParsing : 1&lt;/span&gt;&lt;/font&gt;&lt;/div&gt;" style="verticalAlign=top;align=left;overflow=fill;fontSize=12;fontFamily=Helvetica;html=1;" parent="1" vertex="1">
                    <mxGeometry x="650" y="60" width="240" height="100" as="geometry"/>
                </mxCell>
                <mxCell id="51" style="edgeStyle=none;html=1;fontSize=10;endArrow=block;endFill=0;" parent="1" source="50" target="37" edge="1">
                    <mxGeometry relative="1" as="geometry"/>
                </mxCell>
                <mxCell id="56" style="edgeStyle=none;html=1;fontSize=10;endArrow=openThin;endFill=0;" parent="1" source="50" target="55" edge="1">
                    <mxGeometry relative="1" as="geometry"/>
                </mxCell>
                <mxCell id="50" value="&lt;p style=&quot;margin:0px;margin-top:4px;text-align:center;&quot;&gt;&lt;i&gt;&amp;lt;&amp;lt;class&amp;gt;&amp;gt;&lt;/i&gt;&lt;br&gt;&lt;b&gt;InputHandlerConstArray&lt;/b&gt;&lt;/p&gt;" style="verticalAlign=top;align=left;overflow=fill;fontSize=12;fontFamily=Helvetica;html=1;" parent="1" vertex="1">
                    <mxGeometry x="440" y="-310" width="160" height="50" as="geometry"/>
                </mxCell>
                <mxCell id="57" style="edgeStyle=none;html=1;fontSize=10;endArrow=openThin;endFill=0;" parent="1" source="52" target="54" edge="1">
                    <mxGeometry relative="1" as="geometry"/>
                </mxCell>
                <mxCell id="52" value="&lt;p style=&quot;margin:0px;margin-top:4px;text-align:center;&quot;&gt;&lt;i&gt;&amp;lt;&amp;lt;class&amp;gt;&amp;gt;&lt;/i&gt;&lt;br&gt;&lt;b&gt;InputHandlerFile&lt;/b&gt;&lt;/p&gt;" style="verticalAlign=top;align=left;overflow=fill;fontSize=12;fontFamily=Helvetica;html=1;" parent="1" vertex="1">
                    <mxGeometry x="295" y="-310" width="130" height="50" as="geometry"/>
                </mxCell>
                <mxCell id="53" style="edgeStyle=none;html=1;fontSize=10;endArrow=block;endFill=0;" parent="1" source="52" target="37" edge="1">
                    <mxGeometry relative="1" as="geometry">
                        <mxPoint x="607" y="-230" as="sourcePoint"/>
                        <mxPoint x="549.6666666666665" y="-190" as="targetPoint"/>
                    </mxGeometry>
                </mxCell>
                <mxCell id="54" value="File" style="whiteSpace=wrap;html=1;fontSize=10;" parent="1" vertex="1">
                    <mxGeometry x="310" y="-430" width="100" height="50" as="geometry"/>
                </mxCell>
                <mxCell id="55" value="Array" style="whiteSpace=wrap;html=1;fontSize=10;" parent="1" vertex="1">
                    <mxGeometry x="470" y="-430" width="100" height="50" as="geometry"/>
                </mxCell>
                <mxCell id="60" style="edgeStyle=none;html=1;fontSize=10;endArrow=block;endFill=0;" parent="1" source="58" target="30" edge="1">
                    <mxGeometry relative="1" as="geometry"/>
                </mxCell>
                <mxCell id="58" value="&lt;p style=&quot;margin:0px;margin-top:4px;text-align:center;&quot;&gt;&lt;i&gt;&amp;lt;&amp;lt;class&amp;gt;&amp;gt;&lt;/i&gt;&lt;br&gt;&lt;b&gt;CategoryMapLocalStorage&lt;/b&gt;&lt;/p&gt;" style="verticalAlign=top;align=left;overflow=fill;fontSize=12;fontFamily=Helvetica;html=1;" parent="1" vertex="1">
                    <mxGeometry x="30" y="427.5" width="210" height="45" as="geometry"/>
                </mxCell>
                <mxCell id="61" value="&lt;p style=&quot;margin:0px;margin-top:4px;text-align:center;&quot;&gt;&lt;i&gt;&amp;lt;&amp;lt;enum&amp;gt;&amp;gt;&lt;/i&gt;&lt;br&gt;&lt;b&gt;MapType&lt;/b&gt;&lt;/p&gt;&lt;hr size=&quot;1&quot;&gt;&lt;div style=&quot;background-color: rgb(31, 31, 31); font-family: Consolas, &amp;quot;Courier New&amp;quot;, monospace; line-height: 19px;&quot;&gt;&lt;font style=&quot;font-size: 10px;&quot;&gt;&lt;span style=&quot;color: rgb(220, 220, 170);&quot;&gt;&amp;nbsp;- SeedToSoil : 0&lt;/span&gt;&lt;/font&gt;&lt;/div&gt;&lt;div style=&quot;background-color: rgb(31, 31, 31); font-family: Consolas, &amp;quot;Courier New&amp;quot;, monospace; line-height: 19px;&quot;&gt;&lt;font style=&quot;font-size: 10px;&quot;&gt;&lt;span style=&quot;color: rgb(220, 220, 170);&quot;&gt;- SoilToFertilizer : 1&lt;/span&gt;&lt;/font&gt;&lt;/div&gt;&lt;div style=&quot;background-color: rgb(31, 31, 31); font-family: Consolas, &amp;quot;Courier New&amp;quot;, monospace; line-height: 19px;&quot;&gt;&lt;font color=&quot;#dcdcaa&quot;&gt;&lt;span style=&quot;font-size: 10px;&quot;&gt;- FertilizerToWater : 2&lt;/span&gt;&lt;/font&gt;&lt;/div&gt;&lt;div style=&quot;background-color: rgb(31, 31, 31); font-family: Consolas, &amp;quot;Courier New&amp;quot;, monospace; line-height: 19px;&quot;&gt;&lt;font color=&quot;#dcdcaa&quot;&gt;&lt;span style=&quot;font-size: 10px;&quot;&gt;- WaterToLight : 3&lt;/span&gt;&lt;/font&gt;&lt;/div&gt;&lt;div style=&quot;background-color: rgb(31, 31, 31); font-family: Consolas, &amp;quot;Courier New&amp;quot;, monospace; line-height: 19px;&quot;&gt;&lt;font color=&quot;#dcdcaa&quot;&gt;&lt;span style=&quot;font-size: 10px;&quot;&gt;- LightToTemperature : 4&lt;/span&gt;&lt;/font&gt;&lt;/div&gt;&lt;div style=&quot;background-color: rgb(31, 31, 31); font-family: Consolas, &amp;quot;Courier New&amp;quot;, monospace; line-height: 19px;&quot;&gt;&lt;font color=&quot;#dcdcaa&quot;&gt;&lt;span style=&quot;font-size: 10px;&quot;&gt;- TemperatureToHumidity : 5&lt;/span&gt;&lt;/font&gt;&lt;/div&gt;&lt;div style=&quot;background-color: rgb(31, 31, 31); font-family: Consolas, &amp;quot;Courier New&amp;quot;, monospace; line-height: 19px;&quot;&gt;&lt;font color=&quot;#dcdcaa&quot;&gt;&lt;span style=&quot;font-size: 10px;&quot;&gt;- HumidityToLocation : 6&lt;/span&gt;&lt;/font&gt;&lt;/div&gt;" style="verticalAlign=top;align=left;overflow=fill;fontSize=12;fontFamily=Helvetica;html=1;" parent="1" vertex="1">
                    <mxGeometry x="-40" y="-10" width="240" height="200" as="geometry"/>
                </mxCell>
                <mxCell id="63" value="&lt;p style=&quot;margin:0px;margin-top:4px;text-align:center;&quot;&gt;&lt;i&gt;&amp;lt;&amp;lt;enum&amp;gt;&amp;gt;&lt;/i&gt;&lt;br&gt;&lt;b&gt;PtrMovement&lt;/b&gt;&lt;/p&gt;&lt;hr size=&quot;1&quot;&gt;&lt;div style=&quot;background-color: rgb(31, 31, 31); font-family: Consolas, &amp;quot;Courier New&amp;quot;, monospace; line-height: 19px;&quot;&gt;&lt;font style=&quot;font-size: 10px;&quot;&gt;&lt;span style=&quot;color: rgb(220, 220, 170);&quot;&gt;&amp;nbsp;- Next : 0&lt;/span&gt;&lt;/font&gt;&lt;/div&gt;&lt;div style=&quot;background-color: rgb(31, 31, 31); font-family: Consolas, &amp;quot;Courier New&amp;quot;, monospace; line-height: 19px;&quot;&gt;&lt;font style=&quot;font-size: 10px;&quot;&gt;&lt;span style=&quot;color: rgb(220, 220, 170);&quot;&gt;- Prior : 1&lt;/span&gt;&lt;/font&gt;&lt;/div&gt;&lt;div style=&quot;background-color: rgb(31, 31, 31); font-family: Consolas, &amp;quot;Courier New&amp;quot;, monospace; line-height: 19px;&quot;&gt;&lt;font style=&quot;font-size: 10px;&quot;&gt;&lt;span style=&quot;color: rgb(220, 220, 170);&quot;&gt;- Start : 2&lt;/span&gt;&lt;/font&gt;&lt;/div&gt;&lt;div style=&quot;background-color: rgb(31, 31, 31); font-family: Consolas, &amp;quot;Courier New&amp;quot;, monospace; line-height: 19px;&quot;&gt;&lt;font style=&quot;font-size: 10px;&quot;&gt;&lt;span style=&quot;color: rgb(220, 220, 170);&quot;&gt;- End : 3&lt;/span&gt;&lt;/font&gt;&lt;/div&gt;" style="verticalAlign=top;align=left;overflow=fill;fontSize=12;fontFamily=Helvetica;html=1;" parent="1" vertex="1">
                    <mxGeometry x="660" y="-140" width="240" height="140" as="geometry"/>
                </mxCell>
                <mxCell id="65" value="&lt;div style=&quot;font-size: 10px; text-align: left;&quot;&gt;&lt;span style=&quot;background-color: initial;&quot;&gt;Design Requirements:&lt;/span&gt;&lt;/div&gt;&lt;div style=&quot;font-size: 10px; text-align: left;&quot;&gt;&lt;span style=&quot;background-color: initial;&quot;&gt;- Input Data might not be able to hold in program storage - stream via file etc.&lt;/span&gt;&lt;/div&gt;" style="shape=note2;boundedLbl=1;whiteSpace=wrap;html=1;size=25;verticalAlign=top;align=center;" vertex="1" parent="1">
                    <mxGeometry x="5" y="-500" width="220" height="130" as="geometry"/>
                </mxCell>
            </root>
        </mxGraphModel>
    </diagram>
</mxfile>